<svg xmlns="http://www.w3.org/2000/svg" xmlns:xlink="http://www.w3.org/1999/xlink" width="50" zoomAndPan="magnify" viewBox="0 0 37.5 37.499999" height="50" preserveAspectRatio="xMidYMid meet" version="1.0"><defs><clipPath id="20f220bebd"><path d="M 1.804688 1.804688 L 35.109375 1.804688 L 35.109375 35.109375 L 1.804688 35.109375 Z M 1.804688 1.804688 " clip-rule="nonzero"/></clipPath></defs><g clip-path="url(#20f220bebd)"><path fill="#ffffff" d="M 18.503906 1.804688 C 9.296875 1.804688 1.804688 9.296875 1.804688 18.503906 C 1.804688 27.710938 9.296875 35.203125 18.503906 35.203125 C 27.710938 35.203125 35.203125 27.710938 35.203125 18.503906 C 35.203125 9.296875 27.710938 1.804688 18.503906 1.804688 Z M 9.125 29.691406 C 9.28125 24.648438 13.421875 20.589844 18.503906 20.589844 C 23.585938 20.589844 27.726562 24.648438 27.882812 29.691406 C 25.339844 31.824219 22.070312 33.113281 18.503906 33.113281 C 14.933594 33.113281 11.664062 31.824219 9.125 29.691406 Z M 13.285156 13.285156 C 13.285156 10.40625 15.625 8.066406 18.503906 8.066406 C 21.378906 8.066406 23.722656 10.40625 23.722656 13.285156 C 23.722656 16.164062 21.378906 18.503906 18.503906 18.503906 C 15.625 18.503906 13.285156 16.164062 13.285156 13.285156 Z M 29.769531 27.796875 C 29.011719 23.894531 26.277344 20.703125 22.652344 19.289062 C 24.558594 17.972656 25.808594 15.773438 25.808594 13.285156 C 25.808594 9.257812 22.53125 5.980469 18.503906 5.980469 C 14.476562 5.980469 11.199219 9.257812 11.199219 13.285156 C 11.199219 15.773438 12.449219 17.972656 14.355469 19.292969 C 10.730469 20.703125 7.992188 23.898438 7.238281 27.796875 C 5.148438 25.269531 3.890625 22.03125 3.890625 18.503906 C 3.890625 10.445312 10.445312 3.890625 18.503906 3.890625 C 26.5625 3.890625 33.113281 10.445312 33.113281 18.503906 C 33.113281 22.03125 31.859375 25.269531 29.769531 27.796875 Z M 29.769531 27.796875 " fill-opacity="1" fill-rule="nonzero"/></g></svg>