<svg xmlns="http://www.w3.org/2000/svg" viewBox="0 0 128 128" style="enable-background:new 0 0 128 128" xml:space="preserve"><path style="fill:#bddb75" d="M66.441 4.883c-25.941 0-46.971 21.03-46.971 46.971C19.47 95.71 64 126.498 64 126.498s46.971-32.875 46.971-78.306c0-25.941-18.588-43.309-44.53-43.309zM65.221 85.5c-20.604 0-37.307-16.703-37.307-37.308 0-20.603 16.703-37.307 37.307-37.307 20.604 0 37.306 16.704 37.306 37.307 0 20.605-16.703 37.308-37.306 37.308z"/><path style="fill:#aad15e" d="M64 126.498s46.971-32.875 46.971-78.306c0-25.941-19.485-44.454-46.971-43.247v7.161c20.604 0 36.086 15.483 36.086 36.087 0 20.604-15.482 36.087-36.086 36.087v42.218z"/><path style="fill:#8bbfc8" d="M64.006 12.181C44.111 12.181 28 28.305 28 48.187c0 19.895 16.111 36.006 36.006 36.006 19.883 0 36.006-16.111 36.006-36.006 0-19.882-16.124-36.006-36.006-36.006zM82.985 52.74l-32.04 2.746-5.322-18.272h40.913L82.985 52.74z"/><path style="fill:#1e1e1e" d="m63.983 128-.706-.517c-.474-.348-47.469-35.325-47.469-79.29C15.808 21.619 37.427 0 64 0s48.192 21.619 48.192 48.192c0 45.54-47.016 78.973-47.492 79.306l-.717.502zM64 2.441c-25.226 0-45.751 20.524-45.751 45.751 0 39.797 39.927 72.252 45.766 76.782 5.874-4.371 45.735-35.576 45.735-76.782C109.751 22.965 89.226 2.441 64 2.441zm0 82.98c-20.527 0-37.227-16.7-37.227-37.229 0-20.527 16.7-37.227 37.227-37.227s37.227 16.7 37.227 37.227c0 20.528-16.7 37.229-37.227 37.229zm0-72.015c-19.181 0-34.786 15.605-34.786 34.786C29.214 67.374 44.819 82.98 64 82.98s34.786-15.606 34.786-34.788c0-19.181-15.605-34.786-34.786-34.786z"/><g><path style="fill:#e7cb22" d="M50.293 37.216h36.246l-3.145 15.525-28.383 2.749z"/><path style="fill:#fc726d" d="M51.427 65.961a4.142 4.142 0 1 1 8.284 0 4.142 4.142 0 0 1-8.284 0zm26.63 4.143a4.143 4.143 0 1 0 0-8.286 4.143 4.143 0 0 0 0 8.286z"/><path style="fill:#1e1e1e" d="M78.057 71.325a5.369 5.369 0 0 1-5.363-5.363 5.373 5.373 0 0 1 4.012-5.191H56.92c2.305.6 4.012 2.7 4.012 5.191 0 2.958-2.405 5.363-5.363 5.363s-5.363-2.405-5.363-5.363a5.373 5.373 0 0 1 4.012-5.191h-2.613l-8.581-28.405h-5.308v-2.441h7.12l1.477 4.888h41.733l-4.05 19.065-31.056 2.867.478 1.584H83.58v2.441h-4.173c2.306.6 4.013 2.7 4.013 5.191a5.37 5.37 0 0 1-5.363 5.364zm0-8.285a2.925 2.925 0 0 0-2.921 2.922 2.925 2.925 0 0 0 2.921 2.922 2.926 2.926 0 0 0 2.923-2.922 2.926 2.926 0 0 0-2.923-2.922zm-22.488 0a2.925 2.925 0 0 0-2.921 2.922c0 1.611 1.311 2.922 2.921 2.922s2.921-1.311 2.921-2.922a2.923 2.923 0 0 0-2.921-2.922zm-8.517-25.786 5.168 17.107 29.762-2.749 3.051-14.358H47.052z"/></g></svg>